<?xml version="1.0" encoding="utf-8"?>
<!-- Generator: Adobe Illustrator 25.2.3, SVG Export Plug-In . SVG Version: 6.00 Build 0)  -->
<svg version="1.1" id="Layer_1" xmlns="http://www.w3.org/2000/svg" xmlns:xlink="http://www.w3.org/1999/xlink" x="0px" y="0px"
	 viewBox="0 0 73 71.1" style="enable-background:new 0 0 73 71.1;" xml:space="preserve">
<style type="text/css">
	.st0{fill:#FFFFFF;}
</style>
<path class="st0" d="M0,1.3C0.3,0.4,1.3-0.1,2.2,0c1.6,0,3.3,0,4.9,0c3.5-0.1,6.6,2.2,7.6,5.5C15.2,6.7,15.6,8,16,9.3
	c0.1,0.4,0.5,0.7,0.9,0.6c5.4,0.1,10.9,0.1,16.3,0.2c12.6,0.2,25.1,0.4,37.7,0.6c0.6,0,1.2,0.2,1.6,0.5c0.4,0.3,0.6,0.8,0.5,1.3
	c-1.4,6-2.8,11.9-4.3,17.9c-1.1,3.7-4.3,6.3-8.1,6.5c-6.6,0.7-13.3,1.4-19.9,2.1c-4.8,0.5-9.5,1-14.3,1.5c-0.7,0-1.3,0.5-1.6,1.1
	c-1.1,2.3-0.2,5,2,6.2c0.7,0.4,1.5,0.5,2.3,0.5c10.5-0.1,21.1,0,31.6,0c0.4,0,0.7,0,1.1,0.1c0.8,0.1,1.5,0.8,1.4,1.7
	c0,0.8-0.6,1.5-1.5,1.6c-0.2,0-0.5,0-0.7,0c-10.7,0-21.4,0-32,0c-4.4,0.1-8-3.4-8.1-7.8c0-1.2,0.2-2.4,0.7-3.5
	c0.5-1,0.6-2.2,0.2-3.2C18.3,27.1,14.9,17,11.6,6.8c-0.5-2.2-2.5-3.6-4.7-3.4c-1.5,0-3.1,0-4.6,0C1.2,3.6,0.3,3,0,2V1.3z M69.2,14.1
	l-51.9-0.8c0,0.2,0.1,0.3,0.1,0.4c2.5,7.6,5,15.3,7.6,22.9c0.1,0.4,0.4,0.5,0.8,0.5c2.7-0.3,5.4-0.6,8.2-0.9
	c8.7-0.9,17.5-1.8,26.2-2.7c2.8-0.1,5.1-2.1,5.5-4.8c0.7-2.7,1.3-5.4,2-8.1C68.2,18.5,68.7,16.3,69.2,14.1L69.2,14.1z"/>
<path class="st0" d="M23.3,71.1c-4.2,0-7.6-3.5-7.6-7.7c0-4.2,3.4-7.6,7.6-7.6c4.2,0,7.6,3.4,7.6,7.6C31,67.7,27.5,71.1,23.3,71.1
	C23.3,71.1,23.3,71.1,23.3,71.1z M19.1,63.5c0,2.3,1.9,4.2,4.2,4.2c2.3,0,4.2-1.9,4.2-4.2c0-2.3-1.9-4.2-4.2-4.3
	C21,59.2,19.1,61.1,19.1,63.5C19.1,63.5,19.1,63.5,19.1,63.5z"/>
<path class="st0" d="M47.9,63.5c0-4.2,3.4-7.6,7.6-7.6s7.6,3.4,7.6,7.6c0,4.2-3.4,7.6-7.6,7.6C51.3,71.1,47.9,67.7,47.9,63.5z
	 M55.5,67.7c2.3,0,4.2-1.9,4.2-4.3c0-2.3-1.9-4.2-4.3-4.2c-2.3,0-4.2,1.9-4.2,4.3c0,0,0,0,0,0C51.3,65.8,53.2,67.7,55.5,67.7z"/>
</svg>
